PathFileType	4	(X/Y/Z)	SB25.trc
DataRate	CameraRate	NumFrames	NumMarkers	Units	OrigDataRate	OrigDataStartFrame	OrigNumFrames
60.0	60.0	5	25	m	60.0	1	531
Frame#	Time	R.ASIS			L.ASIS			V.Sacral			R.Knee.Lat			R.Knee.Med			L.Knee.Lat			L.Knee.Med			R.Ankle.Lat			R.Ankle.Med			L.Ankle.Lat			L.Ankle.Med			R.Shank.Front			L.Shank.Front			R.Heel			L.Heel			R.Toe.Tip			L.Toe.Tip			R.Midfoot.Lat			L.Midfoot.Lat			R.Toe.Med			L.Toe.Med			Sternum			Top.Head			R.Acromium			L.Acromium		
		X1	Y1	Z1	X2	Y2	Z2	X3	Y3	Z3	X4	Y4	Z4	X5	Y5	Z5	X6	Y6	Z6	X7	Y7	Z7	X8	Y8	Z8	X9	Y9	Z9	X10	Y10	Z10	X11	Y11	Z11	X12	Y12	Z12	X13	Y13	Z13	X14	Y14	Z14	X15	Y15	Z15	X16	Y16	Z16	X17	Y17	Z17	X18	Y18	Z18	X19	Y19	Z19	X20	Y20	Z20	X21	Y21	Z21	X22	Y22	Z22	X23	Y23	Z23	X24	Y24	Z24	X25	Y25	Z25

1	0.000000	0.741474	0.543703	0.158428	0.740542	0.551361	-0.159542	0.660134	0.706431	0.002101	0.496714	0.166557	0.113788	0.499428	0.174215	0.028794	0.809685	0.191445	-0.165484	0.809578	0.187616	-0.079761	0.106580	0.026802	0.041091	0.112213	0.032546	-0.019186	0.429349	0.024888	-0.072365	0.441758	0.026802	-0.011253	0.491605	0.111038	0.061749	0.806972	0.134011	-0.115635	0.000000	0.000000	-0.000000	0.330485	-0.011487	-0.025543	0.206279	-0.166557	0.011372	0.545420	-0.168471	-0.065167	0.110543	-0.151241	0.052042	0.447809	-0.151241	-0.098123	0.120660	-0.147412	-0.039313	0.462615	-0.153156	-0.005412	1.132448	0.390547	0.002216	1.520186	0.428836	-0.026976	1.173429	0.484355	0.157082	1.143715	0.426922	-0.188628
2	0.016667	0.761184	0.551361	0.158324	0.755038	0.553275	-0.161106	0.670354	0.708345	0.000745	0.503806	0.172300	0.118585	0.505581	0.176129	0.031923	0.813022	0.185701	-0.167361	0.812916	0.183787	-0.081638	0.114610	0.026802	0.047557	0.120973	0.032546	-0.015327	0.432895	0.024888	-0.069966	0.445304	0.026802	-0.008854	0.498697	0.112952	0.066546	0.811978	0.128268	-0.118451	0.007821	0.005743	0.002190	0.333092	-0.009572	-0.024813	0.205548	-0.166557	0.013979	0.544482	-0.168471	-0.066835	0.111481	-0.151241	0.053710	0.448747	-0.151241	-0.096455	0.121599	-0.147412	-0.037645	0.462615	-0.155070	-0.005412	1.158102	0.415435	0.000965	1.540209	0.469039	-0.038238	1.197206	0.516901	0.152494	1.162278	0.447981	-0.194677
3	0.033333	0.785900	0.559018	0.155405	0.773810	0.557104	-0.162878	0.684850	0.708345	-0.000819	0.516841	0.174215	0.122236	0.518616	0.178044	0.035574	0.821573	0.181872	-0.167778	0.822406	0.178044	-0.080386	0.126916	0.026802	0.053815	0.134217	0.032546	-0.007401	0.437171	0.026802	-0.070175	0.451248	0.026802	-0.010001	0.511733	0.114867	0.070197	0.818861	0.122525	-0.117929	0.019919	0.013401	0.004172	0.338306	-0.005743	-0.023352	0.203880	-0.166557	0.014918	0.544482	-0.168471	-0.066835	0.111481	-0.153156	0.053710	0.448747	-0.149327	-0.096455	0.124206	-0.145498	-0.036915	0.462615	-0.153156	-0.005412	1.188032	0.444152	-0.000494	1.566177	0.516901	-0.050648	1.221714	0.553275	0.145299	1.185117	0.476697	-0.200933
4	0.050000	0.814162	0.564762	0.154884	0.797796	0.560933	-0.163190	0.702891	0.708345	0.000016	0.537490	0.174215	0.123800	0.537596	0.179958	0.038077	0.829395	0.174215	-0.165588	0.830227	0.172300	-0.078196	0.147043	0.026802	0.062262	0.153406	0.032546	-0.000622	0.444054	0.026802	-0.069653	0.456462	0.028717	-0.008541	0.532381	0.116781	0.071761	0.825014	0.116781	-0.114801	0.039837	0.026802	0.008344	0.340913	-0.001914	-0.022622	0.206487	-0.166557	0.015648	0.544482	-0.168471	-0.066835	0.111481	-0.151241	0.053710	0.448747	-0.149327	-0.096455	0.128482	-0.139755	-0.037123	0.462615	-0.153156	-0.005412	1.219423	0.472868	-0.007168	1.592874	0.570505	-0.065664	1.251436	0.587735	0.139564	1.211293	0.507328	-0.209067
5	0.066667	0.847638	0.568591	0.155823	0.825327	0.566676	-0.161104	0.726147	0.708345	0.002311	0.565752	0.174215	0.123280	0.563251	0.179958	0.036826	0.836486	0.168471	-0.160791	0.837318	0.166557	-0.073399	0.174991	0.026802	0.072900	0.178017	0.030631	0.011893	0.446661	0.028717	-0.068923	0.459070	0.028717	-0.007811	0.558974	0.114867	0.072179	0.831166	0.111038	-0.111672	0.067577	0.042118	0.014706	0.345189	0.000000	-0.022831	0.205548	-0.166557	0.013979	0.544482	-0.168471	-0.066835	0.111273	-0.145498	0.049434	0.448747	-0.147412	-0.096455	0.133488	-0.132097	-0.039939	0.462615	-0.153156	-0.005412	1.255611	0.501585	-0.020933	1.620302	0.627939	-0.083288	1.283556	0.616452	0.130283	1.240806	0.545617	-0.219078
